<svg width="42" height="42" viewBox="0 0 42 42" fill="none" xmlns="http://www.w3.org/2000/svg">
<rect x="1" y="1" width="40" height="40" rx="20" fill="#EFEFEF"/>
<g clip-path="url(#clip0_390_942)">
<path d="M7.3335 25.773C7.3335 18.3171 13.3777 12.2729 20.8335 12.2729C28.2893 12.2729 34.3335 18.3171 34.3335 25.7729V49.273H7.3335V25.773Z" fill="#2C2C2C"/>
<path fill-rule="evenodd" clip-rule="evenodd" d="M16.0002 23.7729C16.8286 23.7729 17.5002 24.4445 17.5002 25.2729V28.2729C17.5002 29.1014 16.8286 29.7729 16.0002 29.7729C15.1717 29.7729 14.5002 29.1014 14.5002 28.2729V25.2729C14.5002 24.4445 15.1717 23.7729 16.0002 23.7729Z" fill="#BBBBBB"/>
<path fill-rule="evenodd" clip-rule="evenodd" d="M21.3335 23.7729C22.1619 23.7729 22.8335 24.4445 22.8335 25.2729V28.2729C22.8335 29.1014 22.1619 29.7729 21.3335 29.7729C20.5051 29.7729 19.8335 29.1014 19.8335 28.2729V25.2729C19.8335 24.4445 20.5051 23.7729 21.3335 23.7729Z" fill="#BBBBBB"/>
</g>
<defs>
<clipPath id="clip0_390_942">
<rect x="1" y="1" width="40" height="40" rx="20" fill="white"/>
</clipPath>
</defs>
</svg>
