<svg width="25" height="25" viewBox="0 0 25 25" fill="none" xmlns="http://www.w3.org/2000/svg">
<g clip-path="url(#clip0_385_7398)">
<path d="M23.9583 11.458H1.04167C0.46637 11.458 0 11.9244 0 12.4997C0 13.075 0.46637 13.5414 1.04167 13.5414H23.9583C24.5336 13.5414 25 13.075 25 12.4997C25 11.9244 24.5336 11.458 23.9583 11.458Z" fill="black"/>
<path d="M23.9583 4.16699H1.04167C0.46637 4.16699 0 4.63336 0 5.20866C0 5.78395 0.46637 6.25032 1.04167 6.25032H23.9583C24.5336 6.25032 25 5.78395 25 5.20866C25 4.63336 24.5336 4.16699 23.9583 4.16699Z" fill="black"/>
<path d="M23.9583 18.75H1.04167C0.46637 18.75 0 19.2164 0 19.7917C0 20.367 0.46637 20.8333 1.04167 20.8333H23.9583C24.5336 20.8333 25 20.367 25 19.7917C25 19.2164 24.5336 18.75 23.9583 18.75Z" fill="black"/>
</g>
<defs>
<clipPath id="clip0_385_7398">
<rect width="25" height="25" fill="white"/>
</clipPath>
</defs>
</svg>
